# xmcd
#
# Track frame offsets:
#	150
#	13107
#	26426
#	39494
#	51086
#	63318
#	77585
#	90151
#	100461
#	113056
#	126599
#	139945
#	153766
#	166082
#	179680
#	194058
#	206791
#	218606
#	229306
#	241816
#
# Disc length: 3410 seconds
#
# Revision: 1
# Processed by: cddbd v1.5.1PL2 Copyright (c) Steve Scherf et al.
# Submitted via: EasyCDDAExtractor 6.2.0.3
#
DISCID=110d5014
DTITLE=Various Artist - 10 Blues Legends CD 10
DYEAR=1900
DGENRE=
TTITLE0=Muddy Waters - Rolling Stone
TTITLE1=Muddy Waters - Louisiana Blues
TTITLE2=Muddy Waters - Gypsy Woman
TTITLE3=Muddy Waters - Good Looking Woman
TTITLE4=Muddy Waters - I Feel Like Going Home
TTITLE5=Muddy Waters - Train Fare Home
TTITLE6=Muddy Waters - Mean Red Spider
TTITLE7=Muddy Waters - Streamline Woman
TTITLE8=Muddy Waters - Rollin' And Tumblin'
TTITLE9=Muddy Waters - Burying Ground Blues
TTITLE10=Sleepy John Estes - The Girl I Love She Got Long Curly Hair
TTITLE11=Sleepy John Estes - Milk Cow Blues
TTITLE12=Sleepy John Estes - Stop That Thing
TTITLE13=Sleepy John Estes - Someday Baby Blues
TTITLE14=Sleepy John Estes - Drop Down Mama
TTITLE15=Sleepy John Estes - Everybody Ought To Make A Change
TTITLE16=Sleepy John Estes - Clean It Up At Home
TTITLE17=Sleepy John Estes - Time Is Drawning Near
TTITLE18=Sleepy John Estes - Drop Down
TTITLE19=Sleepy John Estes - Brownsville Blues
EXTD=
EXTT0=
EXTT1=
EXTT2=
EXTT3=
EXTT4=
EXTT5=
EXTT6=
EXTT7=
EXTT8=
EXTT9=
EXTT10=
EXTT11=
EXTT12=
EXTT13=
EXTT14=
EXTT15=
EXTT16=
EXTT17=
EXTT18=
EXTT19=
PLAYORDER=
